<svg xmlns="http://www.w3.org/2000/svg" viewBox="0 0 64 64" role="img" aria-labelledby="title desc">
  <title id="title">55AA Security Lab logo</title>
  <desc id="desc">A four by four grid encoding 0101, 0101, 1010, 1010 in black and blue squares.</desc>
  <g fill="#111111">
    <rect x="3" y="3" width="13" height="13" rx="1.5"/>
    <rect x="33" y="3" width="13" height="13" rx="1.5"/>
    <rect x="3" y="18" width="13" height="13" rx="1.5"/>
    <rect x="33" y="18" width="13" height="13" rx="1.5"/>
    <rect x="18" y="33" width="13" height="13" rx="1.5"/>
    <rect x="48" y="33" width="13" height="13" rx="1.5"/>
    <rect x="18" y="48" width="13" height="13" rx="1.5"/>
    <rect x="48" y="48" width="13" height="13" rx="1.5"/>
  </g>
  <g fill="#0066cc">
    <rect x="18" y="3" width="13" height="13" rx="1.5"/>
    <rect x="48" y="3" width="13" height="13" rx="1.5"/>
    <rect x="18" y="18" width="13" height="13" rx="1.5"/>
    <rect x="48" y="18" width="13" height="13" rx="1.5"/>
    <rect x="3" y="33" width="13" height="13" rx="1.5"/>
    <rect x="33" y="33" width="13" height="13" rx="1.5"/>
    <rect x="3" y="48" width="13" height="13" rx="1.5"/>
    <rect x="33" y="48" width="13" height="13" rx="1.5"/>
  </g>
</svg>
